<svg width="50" height="50" viewBox="0 0 50 50" fill="none" xmlns="http://www.w3.org/2000/svg">
<g clip-path="url(#clip0_16_69)">
<path d="M25 0C18.3718 0.00716892 12.0171 2.64339 7.33023 7.33025C2.64337 12.0171 0.00715082 18.3718 -1.81042e-05 25C-0.262518 44.9437 23.2479 57.1437 39.375 45.4521C39.6067 45.2979 39.8052 45.0989 39.9588 44.8667C40.1123 44.6346 40.2178 44.374 40.269 44.1004C40.3201 43.8268 40.316 43.5457 40.2567 43.2738C40.1974 43.0018 40.0842 42.7445 39.9239 42.517C39.7635 42.2895 39.5591 42.0965 39.3229 41.9493C39.0867 41.8021 38.8233 41.7037 38.5484 41.66C38.2736 41.6163 37.9927 41.6281 37.7224 41.6947C37.4522 41.7613 37.198 41.8814 36.975 42.0479C23.5416 51.7833 3.95832 41.6208 4.16665 25C5.3104 -2.6375 44.6937 -2.63125 45.8333 25V29.1667C45.8333 30.2717 45.3943 31.3315 44.6129 32.1129C43.8315 32.8943 42.7717 33.3333 41.6666 33.3333C40.5616 33.3333 39.5018 32.8943 38.7204 32.1129C37.939 31.3315 37.5 30.2717 37.5 29.1667V25C36.975 8.48125 13.0229 8.48333 12.5 25C12.5242 27.5333 13.3155 29.9998 14.7695 32.0745C16.2236 34.1491 18.2721 35.7345 20.6451 36.6217C23.0181 37.5089 25.6043 37.6562 28.0627 37.0443C30.5211 36.4323 32.7364 35.0898 34.4166 33.1937C35.3204 34.7888 36.7249 36.0413 38.4127 36.7573C40.1004 37.4732 41.9771 37.6127 43.7521 37.154C45.5271 36.6953 47.1012 35.664 48.2308 34.22C49.3603 32.7761 49.9822 30.9999 50 29.1667V25C49.9928 18.3718 47.3566 12.0171 42.6697 7.33025C37.9829 2.64339 31.6282 0.00716892 25 0V0ZM25 33.3333C22.7898 33.3333 20.6702 32.4554 19.1074 30.8926C17.5446 29.3298 16.6667 27.2101 16.6667 25C16.6667 22.7899 17.5446 20.6702 19.1074 19.1074C20.6702 17.5446 22.7898 16.6667 25 16.6667C27.2101 16.6667 29.3297 17.5446 30.8925 19.1074C32.4553 20.6702 33.3333 22.7899 33.3333 25C33.3333 27.2101 32.4553 29.3298 30.8925 30.8926C29.3297 32.4554 27.2101 33.3333 25 33.3333Z" fill="black"/>
</g>
<defs>
<clipPath id="clip0_16_69">
<rect width="50" height="50" fill="white"/>
</clipPath>
</defs>
</svg>
