<svg width="42" height="40" viewBox="0 0 42 40" fill="none" xmlns="http://www.w3.org/2000/svg">
<g clip-path="url(#clip0_23_197)">
<path d="M41.5385 20.1217C41.5385 30.1034 33.9335 38.3784 24.0058 39.88V25.9417H28.8329L29.7519 20.175H24.0058V16.4334C24.0058 14.855 24.8088 13.3184 27.3808 13.3184H29.9925V8.40837C29.9925 8.40837 27.6213 8.01837 25.3558 8.01837C20.6238 8.01837 17.5327 10.78 17.5327 15.7784V20.1734H12.2729V25.94H17.5327V39.8784C7.60673 38.375 0 30.1017 0 20.1217C0 9.0767 9.29942 0.121704 20.7692 0.121704C32.239 0.121704 41.5385 9.07504 41.5385 20.1217Z" fill="black"/>
</g>
<defs>
<clipPath id="clip0_23_197">
<rect width="41.5385" height="40" fill="white"/>
</clipPath>
</defs>
</svg>
