<svg width="50" height="50" viewBox="0 0 50 50" fill="none" xmlns="http://www.w3.org/2000/svg">
<g clip-path="url(#clip0_18_83)">
<path d="M15.6354 50C11.8641 49.9976 8.22084 48.6312 5.37802 46.153C2.53521 43.6748 0.684653 40.252 0.167833 36.5162C-0.348986 32.7804 0.502809 28.9838 2.56604 25.8269C4.62927 22.6699 7.76469 20.3658 11.3937 19.3396C14.0315 18.5842 16.8235 18.5497 19.4792 19.2396L35.9542 2.76873C36.8288 1.88807 37.8695 1.18984 39.0161 0.714554C40.1626 0.239265 41.3922 -0.00362313 42.6333 -2.15618e-05C44.5866 0.00163351 46.4594 0.778294 47.8405 2.15945C49.2217 3.54061 49.9983 5.41339 50 7.36665C50.0032 8.60787 49.7604 9.83743 49.2855 10.9842C48.8106 12.131 48.1131 13.1723 47.2333 14.0479L45.8333 15.4479C45.05 16.2259 43.9915 16.6638 42.8875 16.6666H39.5833V18.75C39.5833 19.855 39.1443 20.9149 38.3629 21.6963C37.5815 22.4777 36.5217 22.9166 35.4167 22.9166H33.3333V26.2208C33.3348 26.7682 33.2277 27.3104 33.0181 27.8161C32.8085 28.3217 32.5007 28.7808 32.1125 29.1666L30.7583 30.5208C31.452 33.1752 31.4182 35.9674 30.6604 38.6041C29.8077 41.6083 28.0777 44.2896 25.6919 46.3046C23.3062 48.3196 20.3732 49.5766 17.2687 49.9146C16.7261 49.971 16.181 49.9995 15.6354 50ZM15.6354 22.9166C13.5024 22.9146 11.4111 23.5079 9.59705 24.63C7.78297 25.752 6.31808 27.3581 5.36729 29.2674C4.4165 31.1768 4.01755 33.3137 4.21536 35.4376C4.41316 37.5614 5.19986 39.5878 6.48691 41.2888C7.77395 42.9898 9.51024 44.2977 11.5003 45.0654C13.4904 45.8331 15.6553 46.0301 17.7512 45.6342C19.8472 45.2382 21.791 44.2651 23.3639 42.8244C24.9368 41.3836 26.0763 39.5324 26.6542 37.4791C27.3041 35.2219 27.2313 32.8179 26.4458 30.6041C26.3176 30.2344 26.2962 29.8361 26.3838 29.4548C26.4715 29.0734 26.6649 28.7245 26.9417 28.4479L29.1667 26.2208V22.9166C29.1667 21.8116 29.6056 20.7518 30.3871 19.9704C31.1685 19.189 32.2283 18.75 33.3333 18.75H35.4167V16.6666C35.4167 15.5616 35.8556 14.5018 36.637 13.7204C37.4184 12.939 38.4783 12.5 39.5833 12.5H42.8875L44.2875 11.1C44.7791 10.6107 45.1688 10.0289 45.4341 9.38806C45.6995 8.74725 45.8351 8.06021 45.8333 7.36665C45.8328 6.51848 45.4957 5.70519 44.8962 5.10525C44.2966 4.50531 43.4836 4.16775 42.6354 4.16665C41.9414 4.16494 41.2539 4.30087 40.6127 4.56656C39.9715 4.83226 39.3894 5.22245 38.9 5.71456L21.5437 23.0687C21.2668 23.3456 20.9173 23.5387 20.5356 23.6261C20.1538 23.7134 19.7552 23.6914 19.3854 23.5625C18.1772 23.1371 16.9059 22.9187 15.625 22.9166H15.6354ZM10.4167 37.5C10.4167 37.912 10.5388 38.3148 10.7678 38.6574C10.9967 39 11.3221 39.267 11.7027 39.4247C12.0834 39.5824 12.5023 39.6237 12.9064 39.5433C13.3106 39.4629 13.6818 39.2645 13.9731 38.9731C14.2645 38.6818 14.4629 38.3106 14.5433 37.9064C14.6237 37.5023 14.5824 37.0834 14.4247 36.7027C14.2671 36.322 14 35.9967 13.6574 35.7677C13.3148 35.5388 12.912 35.4166 12.5 35.4166C11.9475 35.4166 11.4176 35.6361 11.0269 36.0268C10.6362 36.4175 10.4167 36.9474 10.4167 37.5Z" fill="black"/>
</g>
<defs>
<clipPath id="clip0_18_83">
<rect width="50" height="50" fill="white"/>
</clipPath>
</defs>
</svg>
