<svg width="30" height="30" viewBox="0 0 30 30" fill="none" xmlns="http://www.w3.org/2000/svg">
<g clip-path="url(#clip0_26_202)">
<path d="M29.6338 27.8662L22.1725 20.405C24.2058 17.9182 25.2055 14.7451 24.9648 11.5419C24.7241 8.33876 23.2615 5.35064 20.8795 3.19562C18.4974 1.04061 15.3782 -0.116413 12.1671 -0.0361233C8.95587 0.0441664 5.89838 1.35563 3.62702 3.62699C1.35566 5.89835 0.044197 8.95584 -0.0360928 12.167C-0.116383 15.3782 1.04064 18.4974 3.19565 20.8795C5.35067 23.2615 8.33879 24.7241 11.542 24.9648C14.7451 25.2054 17.9182 24.2058 20.405 22.1725L27.8663 29.6337C28.102 29.8614 28.4178 29.9874 28.7455 29.9846C29.0732 29.9817 29.3868 29.8503 29.6185 29.6185C29.8503 29.3867 29.9817 29.0732 29.9846 28.7455C29.9874 28.4177 29.8615 28.102 29.6338 27.8662ZM12.5 22.5C10.5222 22.5 8.58879 21.9135 6.9443 20.8147C5.29981 19.7159 4.01808 18.1541 3.26121 16.3268C2.50433 14.4995 2.3063 12.4889 2.69215 10.5491C3.078 8.60926 4.03041 6.82743 5.42893 5.4289C6.82746 4.03038 8.60929 3.07797 10.5491 2.69212C12.4889 2.30627 14.4996 2.5043 16.3268 3.26118C18.1541 4.01805 19.7159 5.29978 20.8147 6.94427C21.9135 8.58876 22.5 10.5222 22.5 12.5C22.497 15.1512 21.4425 17.693 19.5678 19.5678C17.6931 21.4425 15.1513 22.497 12.5 22.5Z" fill="black"/>
</g>
<defs>
<clipPath id="clip0_26_202">
<rect width="30" height="30" fill="white"/>
</clipPath>
</defs>
</svg>
