<svg width="40" height="40" viewBox="0 0 40 40" fill="none" xmlns="http://www.w3.org/2000/svg">
<g clip-path="url(#clip0_23_178)">
<path d="M1.66667 7.91633H6.22667C6.58439 9.23255 7.36529 10.3945 8.44888 11.2229C9.53247 12.0513 10.8585 12.5001 12.2225 12.5001C13.5865 12.5001 14.9125 12.0513 15.9961 11.2229C17.0797 10.3945 17.8606 9.23255 18.2183 7.91633H38.3333C38.7754 7.91633 39.1993 7.74074 39.5118 7.42818C39.8244 7.11562 40 6.69169 40 6.24967C40 5.80764 39.8244 5.38372 39.5118 5.07116C39.1993 4.75859 38.7754 4.583 38.3333 4.583H18.2183C17.8606 3.26678 17.0797 2.10484 15.9961 1.27645C14.9125 0.448056 13.5865 -0.000762939 12.2225 -0.000762939C10.8585 -0.000762939 9.53247 0.448056 8.44888 1.27645C7.36529 2.10484 6.58439 3.26678 6.22667 4.583H1.66667C1.22464 4.583 0.800716 4.75859 0.488155 5.07116C0.175595 5.38372 0 5.80764 0 6.24967C0 6.69169 0.175595 7.11562 0.488155 7.42818C0.800716 7.74074 1.22464 7.91633 1.66667 7.91633ZM12.2217 3.333C12.7985 3.333 13.3624 3.50406 13.8421 3.82455C14.3217 4.14503 14.6956 4.60056 14.9163 5.13351C15.1371 5.66646 15.1948 6.2529 15.0823 6.81868C14.9698 7.38446 14.692 7.90416 14.2841 8.31206C13.8762 8.71996 13.3565 8.99775 12.7907 9.11029C12.2249 9.22283 11.6385 9.16507 11.1055 8.94431C10.5726 8.72356 10.117 8.34972 9.79655 7.87008C9.47606 7.39044 9.305 6.82653 9.305 6.24967C9.30588 5.47639 9.61346 4.73504 10.1602 4.18825C10.707 3.64146 11.4484 3.33388 12.2217 3.333Z" fill="black"/>
<path d="M38.3333 18.3333H33.7733C33.4162 17.0168 32.6356 15.8545 31.5521 15.0257C30.4686 14.197 29.1424 13.748 27.7783 13.748C26.4142 13.748 25.0881 14.197 24.0045 15.0257C22.921 15.8545 22.1405 17.0168 21.7833 18.3333H1.66667C1.22464 18.3333 0.800716 18.5089 0.488155 18.8215C0.175595 19.1341 0 19.558 0 20C0 20.442 0.175595 20.866 0.488155 21.1785C0.800716 21.4911 1.22464 21.6667 1.66667 21.6667H21.7833C22.1405 22.9832 22.921 24.1456 24.0045 24.9743C25.0881 25.803 26.4142 26.2521 27.7783 26.2521C29.1424 26.2521 30.4686 25.803 31.5521 24.9743C32.6356 24.1456 33.4162 22.9832 33.7733 21.6667H38.3333C38.7754 21.6667 39.1993 21.4911 39.5118 21.1785C39.8244 20.866 40 20.442 40 20C40 19.558 39.8244 19.1341 39.5118 18.8215C39.1993 18.5089 38.7754 18.3333 38.3333 18.3333ZM27.7783 22.9167C27.2015 22.9167 26.6376 22.7456 26.1579 22.4251C25.6783 22.1046 25.3044 21.6491 25.0837 21.1162C24.8629 20.5832 24.8052 19.9968 24.9177 19.431C25.0302 18.8652 25.308 18.3455 25.7159 17.9376C26.1238 17.5297 26.6435 17.2519 27.2093 17.1394C27.7751 17.0268 28.3615 17.0846 28.8945 17.3054C29.4274 17.5261 29.883 17.9 30.2035 18.3796C30.5239 18.8592 30.695 19.4231 30.695 20C30.6941 20.7733 30.3865 21.5146 29.8398 22.0614C29.293 22.6082 28.5516 22.9158 27.7783 22.9167Z" fill="black"/>
<path d="M38.3333 32.0833H18.2183C17.8606 30.7671 17.0797 29.6052 15.9961 28.7768C14.9125 27.9484 13.5865 27.4996 12.2225 27.4996C10.8585 27.4996 9.53247 27.9484 8.44888 28.7768C7.36529 29.6052 6.58439 30.7671 6.22667 32.0833H1.66667C1.22464 32.0833 0.800716 32.2589 0.488155 32.5715C0.175595 32.8841 0 33.308 0 33.75C0 34.192 0.175595 34.616 0.488155 34.9285C0.800716 35.2411 1.22464 35.4167 1.66667 35.4167H6.22667C6.58439 36.7329 7.36529 37.8948 8.44888 38.7232C9.53247 39.5516 10.8585 40.0004 12.2225 40.0004C13.5865 40.0004 14.9125 39.5516 15.9961 38.7232C17.0797 37.8948 17.8606 36.7329 18.2183 35.4167H38.3333C38.7754 35.4167 39.1993 35.2411 39.5118 34.9285C39.8244 34.616 40 34.192 40 33.75C40 33.308 39.8244 32.8841 39.5118 32.5715C39.1993 32.2589 38.7754 32.0833 38.3333 32.0833ZM12.2217 36.6667C11.6448 36.6667 11.0809 36.4956 10.6013 36.1751C10.1216 35.8546 9.74777 35.3991 9.52702 34.8662C9.30626 34.3332 9.2485 33.7468 9.36104 33.181C9.47358 32.6152 9.75137 32.0955 10.1593 31.6876C10.5672 31.2797 11.0869 31.0019 11.6527 30.8894C12.2184 30.7768 12.8049 30.8346 13.3378 31.0554C13.8708 31.2761 14.3263 31.6499 14.6468 32.1296C14.9673 32.6092 15.1383 33.1731 15.1383 33.75C15.137 34.5231 14.8293 35.2642 14.2826 35.8109C13.7359 36.3576 12.9948 36.6653 12.2217 36.6667Z" fill="black"/>
</g>
<defs>
<clipPath id="clip0_23_178">
<rect width="40" height="40" fill="white"/>
</clipPath>
</defs>
</svg>
