<svg width="42" height="40" viewBox="0 0 42 40" fill="none" xmlns="http://www.w3.org/2000/svg">
<g clip-path="url(#clip0_23_195)">
<path d="M37.286 10.4343C37.3102 10.786 37.3102 11.1393 37.3102 11.4943C37.3102 22.3393 28.736 34.8443 13.0621 34.8443V34.8377C8.43231 34.8443 3.89769 33.5677 0 31.1593C0.673269 31.2377 1.35 31.276 2.02846 31.2777C5.86731 31.281 9.59538 30.041 12.6121 27.7576C8.96538 27.691 5.76692 25.401 4.65058 22.0576C5.92788 22.2943 7.24327 22.246 8.49808 21.9177C4.52077 21.1443 1.66154 17.7793 1.66154 13.8727C1.66154 13.8377 1.66154 13.8026 1.66154 13.7693C2.84712 14.406 4.17288 14.7577 5.52981 14.796C1.78442 12.3876 0.628269 7.59098 2.89038 3.84098C7.21731 8.96765 13.6021 12.0843 20.4542 12.416C19.7671 9.56598 20.7069 6.57932 22.9188 4.57432C26.351 1.46598 31.7492 1.62598 34.9771 4.93098C36.8862 4.56932 38.7156 3.89432 40.3892 2.93932C39.7523 4.83932 38.4213 6.45265 36.6421 7.47932C38.3331 7.28432 39.9825 6.84932 41.5385 6.18598C40.3944 7.83432 38.9544 9.27265 37.286 10.4343Z" fill="black"/>
</g>
<defs>
<clipPath id="clip0_23_195">
<rect width="41.5385" height="40" fill="white"/>
</clipPath>
</defs>
</svg>
