<svg width="50" height="50" viewBox="0 0 50 50" fill="none" xmlns="http://www.w3.org/2000/svg">
<g clip-path="url(#clip0_17_73)">
<path d="M43.75 50H39.5833V39.4938C39.5817 37.8604 38.9321 36.2945 37.7772 35.1395C36.6222 33.9846 35.0562 33.335 33.4229 33.3334H16.5771C14.9437 33.335 13.3778 33.9846 12.2228 35.1395C11.0679 36.2945 10.4183 37.8604 10.4167 39.4938V50H6.25V39.4938C6.25331 36.7559 7.3424 34.1311 9.27839 32.1951C11.2144 30.2591 13.8392 29.17 16.5771 29.1667H33.4229C36.1608 29.17 38.7856 30.2591 40.7216 32.1951C42.6576 34.1311 43.7467 36.7559 43.75 39.4938V50Z" fill="black"/>
<path d="M25 25C22.5277 25 20.111 24.2669 18.0554 22.8934C15.9998 21.5199 14.3976 19.5676 13.4515 17.2835C12.5054 14.9995 12.2579 12.4861 12.7402 10.0614C13.2225 7.63661 14.413 5.40933 16.1612 3.66117C17.9093 1.91301 20.1366 0.722505 22.5614 0.24019C24.9861 -0.242126 27.4995 0.00541608 29.7835 0.951511C32.0676 1.89761 34.0199 3.49976 35.3934 5.55538C36.7669 7.61099 37.5 10.0277 37.5 12.5C37.4967 15.8142 36.1787 18.9917 33.8352 21.3352C31.4917 23.6787 28.3142 24.9967 25 25ZM25 4.16667C23.3518 4.16667 21.7407 4.65541 20.3703 5.57109C18.9998 6.48677 17.9317 7.78826 17.301 9.31098C16.6703 10.8337 16.5053 12.5092 16.8268 14.1258C17.1483 15.7423 17.942 17.2271 19.1074 18.3926C20.2729 19.558 21.7577 20.3517 23.3743 20.6732C24.9908 20.9948 26.6663 20.8297 28.189 20.199C29.7118 19.5683 31.0132 18.5002 31.9289 17.1298C32.8446 15.7593 33.3333 14.1482 33.3333 12.5C33.3333 10.2899 32.4554 8.17025 30.8926 6.60745C29.3298 5.04465 27.2101 4.16667 25 4.16667Z" fill="black"/>
</g>
<defs>
<clipPath id="clip0_17_73">
<rect width="50" height="50" fill="white"/>
</clipPath>
</defs>
</svg>
